SplineFontDB: 3.2
FontName: StarFolkAlphabet
FullName: Star Folk Alphabet
FamilyName: Star Folk Alphabet
Weight: Regular
Copyright: Copyright (c) 2019, Unknown
UComments: "2019-10-5: Created with FontForge (http://fontforge.org)"
Version: 001.000
ItalicAngle: 0
UnderlinePosition: -102.4
UnderlineWidth: 51.2
Ascent: 819
Descent: 205
InvalidEm: 0
LayerCount: 2
Layer: 0 0 "Back" 1
Layer: 1 0 "Fore" 0
XUID: [1021 370 -376329042 11314256]
StyleMap: 0x0000
FSType: 0
OS2Version: 0
OS2_WeightWidthSlopeOnly: 0
OS2_UseTypoMetrics: 1
CreationTime: 1570310722
ModificationTime: 1586977838
OS2TypoAscent: 0
OS2TypoAOffset: 1
OS2TypoDescent: 0
OS2TypoDOffset: 1
OS2TypoLinegap: 92
OS2WinAscent: 0
OS2WinAOffset: 1
OS2WinDescent: 0
OS2WinDOffset: 1
HheadAscent: 0
HheadAOffset: 1
HheadDescent: 0
HheadDOffset: 1
OS2Vendor: 'PfEd'
MarkAttachClasses: 1
DEI: 91125
LangName: 1033
Encoding: UnicodeFull
UnicodeInterp: none
NameList: AGL For New Fonts
DisplaySize: -48
AntiAlias: 1
FitToEm: 0
WinInfo: 24 6 9
BeginPrivate: 1
BlueValues 7 [43 61]
EndPrivate
BeginChars: 1114112 63

StartChar: s
Encoding: 115 115 0
Width: 1024
VWidth: 0
Flags: HW
LayerCount: 2
Fore
SplineSet
549 629 m 4
 549 595 544 563 544 530 c 4
 544 499 548 472 553 445 c 5
 645 457 715 507 763 564 c 4
 793 600 816 643 830 693 c 5
 852 688 872 682 894 677 c 5
 870 584 819 514 753 462 c 4
 704 422 643 394 569 380 c 5
 614 242 688 105 869 105 c 4
 877 105 886 105 894 106 c 5
 897 84 899 63 902 41 c 5
 890 40 877 39 865 39 c 4
 651 39 570 194 510 347 c 5
 470 227 407 126 301 73 c 4
 261 53 213 40 156 40 c 4
 144 40 132 41 120 42 c 5
 122 64 124 86 126 108 c 5
 134 107 144 106 152 106 c 4
 322 106 387 222 437 342 c 4
 442 353 447 366 451 377 c 5
 331 395 244 449 182 526 c 4
 145 571 115 627 101 693 c 5
 123 698 145 703 167 708 c 5
 178 654 203 606 234 568 c 4
 285 503 363 452 467 442 c 4
 469 445 468 451 469 455 c 4
 471 460 471 464 471 470 c 0
 471 472 471 474 471 476 c 0
 471 480 471 483 472 487 c 4
 474 496 477 508 477 519 c 4
 477 553 475 588 475 624 c 4
 475 643 475 663 475 682 c 4
 475 710 476 735 477 762 c 5
 499 761 521 761 543 760 c 5
 543 755 543 749 543 744 c 5
 545 744 l 5
 546 705 549 668 549 629 c 4
EndSplineSet
Validated: 1
EndChar

StartChar: k
Encoding: 107 107 1
Width: 1024
VWidth: 0
Flags: HW
LayerCount: 2
Fore
SplineSet
105 258 m 1
 130 281 l 1
 181 227 243 184 312 154 c 1
 488 717 l 2
 493 731 507 739 520 739 c 0
 524 739 528 739 532 737 c 0
 541 733 550 722 552 717 c 2
 743 150 l 1
 808 177 868 214 918 263 c 1
 941 240 l 1
 965 216 l 1
 853 107 700 43 543 41 c 0
 540 41 535 40 532 40 c 0
 363 40 197 113 81 236 c 1
 105 258 l 1
375 130 m 1
 426 115 479 106 532 106 c 0
 535 106 538 106 541 106 c 0
 588 107 635 115 680 127 c 1
 521 599 l 1
 375 130 l 1
EndSplineSet
Validated: 1
EndChar

StartChar: a
Encoding: 97 97 2
Width: 1024
VWidth: 0
Flags: HW
LayerCount: 2
Fore
SplineSet
113 68 m 1
 80 69 l 1
 86 420 197 756 508 756 c 0
 509 756 l 0
 825 755 941 429 972 80 c 1
 939 77 l 1
 906 75 l 1
 876 409 774 661 546 687 c 1
 555 81 l 1
 521 80 l 1
 488 80 l 1
 479 688 l 1
 253 668 152 408 146 68 c 1
 113 68 l 1
EndSplineSet
Validated: 1
EndChar

StartChar: b
Encoding: 98 98 3
Width: 1024
VWidth: 0
Flags: HW
LayerCount: 2
Fore
SplineSet
90 536 m 5
 69 544 48 550 27 558 c 5
 59 651 104 704 159 716 c 4
 168 718 176 719 184 719 c 4
 245 719 295 670 322 620 c 5
 326 626 329 631 333 637 c 4
 394 723 504 761 603 761 c 4
 666 761 725 746 765 717 c 4
 924 602 949 498 949 360 c 4
 949 298 944 227 944 147 c 4
 944 135 944 123 944 110 c 0
 944 104 944 97 944 91 c 5
 922 90 901 90 879 89 c 5
 878 113 877 134 877 156 c 4
 877 244 883 314 883 373 c 4
 883 492 860 568 726 664 c 4
 699 683 655 692 607 692 c 4
 527 692 434 664 387 598 c 4
 372 576 361 553 356 523 c 5
 347 524 l 5
 353 474 354 412 354 346 c 4
 354 253 350 157 349 97 c 5
 327 98 306 98 284 99 c 5
 285 158 287 252 287 341 c 4
 287 428 283 512 274 555 c 4
 263 604 216 652 181 652 c 4
 178 652 175 652 173 651 c 4
 153 646 120 622 90 536 c 5
EndSplineSet
Validated: 1
EndChar

StartChar: d
Encoding: 100 100 4
Width: 1024
VWidth: 0
Flags: HW
LayerCount: 2
Fore
SplineSet
184 672 m 5
 216 681 l 5
 251 565 333 488 467 473 c 5
 467 710 l 5
 490 710 511 710 534 710 c 5
 534 476 l 5
 632 494 698 548 739 625 c 4
 748 642 756 661 761 679 c 5
 793 671 l 5
 824 662 l 5
 798 564 733 492 653 447 c 4
 619 429 579 415 535 409 c 5
 535 89 l 5
 512 89 491 89 468 89 c 5
 468 407 l 5
 358 412 280 465 225 526 c 4
 192 563 167 611 153 664 c 5
 184 672 l 5
EndSplineSet
Validated: 1
EndChar

StartChar: e
Encoding: 101 101 5
Width: 1024
VWidth: 0
Flags: HW
LayerCount: 2
Fore
SplineSet
500 435 m 5
 480 426 458 418 438 409 c 5
 317 687 l 5
 337 696 359 705 379 714 c 5
 500 435 l 5
549 710 m 5
 569 719 590 727 610 736 c 5
 901 99 l 5
 881 90 860 82 840 73 c 5
 549 710 l 5
53 685 m 5
 73 693 95 702 115 710 c 5
 358 104 l 5
 338 96 317 88 297 80 c 5
 53 685 l 5
EndSplineSet
Validated: 1
EndChar

StartChar: f
Encoding: 102 102 6
Width: 1024
VWidth: 0
Flags: HW
LayerCount: 2
Fore
SplineSet
106 223 m 1
 106 245 106 267 106 289 c 1
 117 289 159 285 213 285 c 0
 300 285 424 297 522 364 c 0
 704 487 722 661 722 720 c 0
 722 731 721 738 721 740 c 1
 754 745 l 1
 786 751 l 1
 786 748 788 736 788 720 c 0
 788 644 765 447 559 308 c 0
 445 231 307 217 213 217 c 0
 156 217 114 223 106 223 c 1
87 66 m 1
 90 88 94 109 97 131 c 0
 98 131 173 120 275 120 c 0
 403 120 573 137 688 216 c 0
 886 351 887 703 887 751 c 0
 887 752 l 0
 909 752 930 752 952 752 c 1
 952 749 953 742 953 734 c 0
 953 648 943 309 725 161 c 0
 594 72 417 51 282 51 c 0
 170 51 87 66 87 66 c 1
EndSplineSet
Validated: 1
EndChar

StartChar: g
Encoding: 103 103 7
Width: 1024
VWidth: 0
Flags: HW
LayerCount: 2
Fore
SplineSet
373 384 m 4
 373 446 424 498 486 498 c 4
 548 498 600 446 600 384 c 4
 600 322 548 270 486 270 c 4
 424 270 373 322 373 384 c 4
160 387 m 4
 160 243 305 117 493 117 c 4
 681 117 825 243 825 387 c 4
 825 531 681 657 493 657 c 4
 305 657 160 531 160 387 c 4
94 387 m 4
 94 578 278 725 493 725 c 4
 708 725 891 578 891 387 c 4
 891 196 708 49 493 49 c 4
 278 49 94 196 94 387 c 4
EndSplineSet
Validated: 1
EndChar

StartChar: h
Encoding: 104 104 8
Width: 1024
VWidth: 0
Flags: HW
LayerCount: 2
Fore
SplineSet
496 740 m 1
 528 740 l 1
 528 380 l 1
 823 91 l 1
 800 68 l 1
 776 44 l 1
 528 287 l 1
 528 46 l 1
 496 46 l 1
 463 46 l 1
 463 271 l 1
 253 36 l 1
 228 58 l 1
 204 81 l 1
 463 372 l 1
 463 740 l 1
 496 740 l 1
EndSplineSet
Validated: 1
EndChar

StartChar: i
Encoding: 105 105 9
Width: 1024
VWidth: 0
Flags: HW
LayerCount: 2
Fore
SplineSet
877 90 m 1028
900 55 m 5
 894 57 886 58 877 61 c 4
 802 81 640 138 561 279 c 4
 534 326 509 442 489 540 c 5
 467 431 443 309 413 257 c 4
 374 186 325 141 280 112 c 4
 228 79 179 64 151 57 c 6
 130 51 l 5
 130 51 127 50 123 50 c 4
 111 50 85 53 85 76 c 4
 85 82 87 89 91 98 c 4
 109 140 185 129 245 168 c 4
 282 192 321 230 355 290 c 4
 383 339 436 747 484 752 c 4
 485 752 l 4
 535 752 599 346 618 311 c 4
 676 207 904 93 904 60 c 4
 904 58 903 56 900 55 c 5
EndSplineSet
Validated: 1
EndChar

StartChar: j
Encoding: 106 106 10
Width: 1024
VWidth: 0
Flags: HW
LayerCount: 2
Fore
SplineSet
173 280 m 5
 160 298 147 317 134 335 c 5
 409 528 l 5
 129 690 l 5
 140 709 151 729 162 748 c 5
 486 560 l 6
 493 555 500 551 502 542 c 6
 638 108 l 5
 929 82 l 5
 927 60 925 38 923 16 c 5
 609 44 l 6
 596 45 585 56 581 67 c 6
 452 478 l 5
 173 280 l 5
EndSplineSet
Validated: 1
EndChar

StartChar: m
Encoding: 109 109 11
Width: 1024
VWidth: 0
Flags: HW
LayerCount: 2
Fore
SplineSet
808 754 m 4
 830 754 840 735 840 722 c 4
 840 712 836 703 836 703 c 5
 798 637 784 556 784 474 c 4
 784 335 823 195 849 134 c 5
 861 121 l 5
 870 108 l 5
 870 108 876 98 876 87 c 4
 876 75 870 59 843 55 c 4
 841 55 839 54 837 54 c 4
 777 54 748 209 731 317 c 4
 723 366 717 419 717 473 c 4
 717 533 724 594 742 653 c 5
 671 619 566 573 473 565 c 4
 468 565 462 564 457 564 c 4
 375 564 274 612 207 645 c 5
 223 577 232 497 232 409 c 4
 232 306 221 193 195 80 c 5
 129 94 l 5
 154 202 165 311 165 408 c 4
 165 524 150 624 122 694 c 4
 121 696 121 697 121 699 c 4
 121 707 129 711 144 711 c 4
 219 711 443 631 467 631 c 4
 579 640 745 754 808 754 c 4
EndSplineSet
Validated: 1
EndChar

StartChar: n
Encoding: 110 110 12
Width: 1024
VWidth: 0
Flags: HW
LayerCount: 2
Fore
SplineSet
109 289 m 1
 136 308 l 1
 182 242 245 190 318 155 c 1
 328 643 l 1
 360 642 l 1
 393 641 l 1
 385 128 l 1
 415 119 444 113 475 110 c 1
 481 642 l 1
 514 642 l 1
 547 642 l 1
 542 108 l 1
 577 110 609 115 643 124 c 1
 641 636 l 1
 674 636 l 1
 707 636 l 1
 710 146 l 1
 783 178 848 229 896 291 c 1
 923 270 l 1
 949 250 l 1
 849 119 686 40 521 40 c 0
 516 40 512 41 507 41 c 0
 339 46 177 132 81 269 c 1
 109 289 l 1
EndSplineSet
Validated: 1
EndChar

StartChar: p
Encoding: 112 112 13
Width: 1024
VWidth: 0
Flags: HW
LayerCount: 2
Fore
SplineSet
716 258 m 1
 750 77 l 1
 717 71 l 1
 684 65 l 1
 655 219 l 1
 415 225 l 2
 401 225 386 236 383 251 c 2
 306 620 l 2
 306 622 306 624 306 626 c 0
 306 639 315 653 329 658 c 2
 587 744 l 2
 590 745 592 745 595 745 c 0
 609 745 627 737 630 719 c 2
 715 264 l 1
 716 258 l 1
600 517 m 1
 403 478 l 1
 419 409 l 1
 616 428 l 1
 600 517 l 1
588 582 m 1
 571 669 l 1
 378 604 l 1
 390 544 l 1
 588 582 l 1
629 362 m 1
 432 343 l 1
 443 291 l 1
 643 286 l 1
 629 362 l 1
EndSplineSet
Validated: 1
EndChar

StartChar: c
Encoding: 99 99 14
Width: 1024
VWidth: 0
Flags: HW
LayerCount: 2
Fore
SplineSet
760 725 m 1
 727 722 l 1
 727 722 726 725 726 728 c 0
 726 738 729 760 754 760 c 0
 758 760 763 759 768 758 c 0
 808 749 864 558 864 378 c 0
 864 327 860 275 849 229 c 0
 838 182 820 137 790 99 c 0
 735 28 654 6 572 6 c 0
 484 6 395 32 334 52 c 0
 330 53 325 55 321 56 c 1
 343 120 l 1
 347 119 350 117 354 116 c 0
 419 94 497 74 570 74 c 0
 637 74 698 91 736 140 c 0
 780 196 796 277 796 360 c 0
 796 514 745 676 732 708 c 1
 760 725 l 1
EndSplineSet
Validated: 1
EndChar

StartChar: r
Encoding: 114 114 15
Width: 1024
VWidth: 0
Flags: HW
LayerCount: 2
Fore
SplineSet
213 89 m 1
 197 118 l 1
 689 402 l 1
 169 693 l 1
 185 722 l 1
 202 751 l 1
 773 431 l 2
 777 429 781 425 784 421 c 0
 788 415 790 408 790 402 c 0
 790 391 783 380 773 374 c 2
 229 60 l 1
 213 89 l 1
EndSplineSet
Validated: 1
EndChar

StartChar: t
Encoding: 116 116 16
Width: 849
VWidth: 0
Flags: HW
LayerCount: 2
Fore
SplineSet
195 169 m 0
 195 122 246 74 322 74 c 0
 397 74 446 121 447 168 c 1
 427 188 412 213 404 241 c 1
 382 255 356 264 322 264 c 0
 246 264 195 216 195 169 c 0
147 436 m 0
 147 529 229 602 325 602 c 0
 419 602 500 531 502 440 c 1
 522 449 545 455 570 455 c 0
 664 455 741 379 741 286 c 0
 741 193 664 117 570 117 c 0
 548 117 528 121 509 128 c 1
 487 54 407 6 322 6 c 0
 222 6 129 73 129 169 c 0
 129 229 165 277 216 305 c 1
 174 335 147 382 147 436 c 0
213 436 m 0
 213 384 262 338 325 338 c 0
 388 338 436 384 436 436 c 0
 436 488 388 535 325 535 c 0
 262 535 213 488 213 436 c 0
466 278 m 0
 489 258 504 232 511 202 c 1
 527 191 547 184 570 184 c 0
 629 184 676 230 676 286 c 0
 676 342 629 387 570 387 c 0
 511 387 465 342 465 286 c 0
 465 283 466 281 466 278 c 0
EndSplineSet
Validated: 1
EndChar

StartChar: w
Encoding: 119 119 17
Width: 1024
VWidth: 0
Flags: HW
LayerCount: 2
Fore
SplineSet
449 91 m 2
 171 370 l 2
 165 376 162 384 162 392 c 0
 162 401 166 412 171 417 c 2
 456 701 l 2
 462 707 470 711 478 711 c 0
 487 711 498 706 503 701 c 2
 780 423 l 2
 786 417 790 408 790 400 c 0
 790 391 785 381 780 376 c 2
 496 91 l 2
 490 85 481 82 473 82 c 0
 464 82 454 86 449 91 c 2
472 162 m 1
 710 399 l 1
 479 631 l 1
 242 393 l 1
 472 162 l 1
EndSplineSet
Validated: 1
EndChar

StartChar: x
Encoding: 120 120 18
Width: 1024
VWidth: 0
Flags: HW
LayerCount: 2
Fore
SplineSet
130 676 m 1
 130 709 l 1
 883 712 l 1
 883 679 l 1
 883 646 l 1
 130 643 l 1
 130 676 l 1
311 61 m 1
 279 61 l 1
 282 571 l 1
 314 571 l 1
 347 571 l 1
 344 61 l 1
 311 61 l 1
698 52 m 1
 666 52 l 1
 669 578 l 1
 701 578 l 1
 734 578 l 1
 731 52 l 1
 698 52 l 1
EndSplineSet
Validated: 1
EndChar

StartChar: aacute
Encoding: 225 225 20
Width: 1024
VWidth: 0
Flags: HW
LayerCount: 2
Fore
SplineSet
80 538 m 1
 113 537 l 1
 113 530 113 522 113 515 c 0
 113 344 188 272 301 260 c 0
 305 260 308 260 312 260 c 0
 455 260 447 569 679 570 c 0
 680 571 l 0
 813 571 919 441 936 202 c 1
 903 200 l 1
 870 198 l 1
 854 425 760 505 680 505 c 0
 679 505 l 0
 540 504 522 193 317 193 c 0
 310 193 303 194 295 195 c 0
 144 211 46 320 46 517 c 0
 46 524 47 532 47 539 c 1
 80 538 l 1
EndSplineSet
Validated: 1
EndChar

StartChar: eacute
Encoding: 233 233 21
Width: 1024
VWidth: 0
Flags: HW
LayerCount: 2
Fore
SplineSet
153 54 m 5
 142 73 131 93 120 112 c 5
 654 409 l 5
 116 658 l 5
 125 677 135 699 144 718 c 5
 709 458 l 5
 903 764 l 5
 921 753 940 740 958 729 c 5
 761 416 l 5
 761 415 761 413 761 412 c 0
 761 400 755 389 744 383 c 6
 153 54 l 5
EndSplineSet
Validated: 1
EndChar

StartChar: iacute
Encoding: 237 237 22
Width: 1024
VWidth: 0
Flags: HW
LayerCount: 2
Fore
SplineSet
336 737 m 1
 369 738 l 1
 380 412 l 1
 554 531 l 2
 560 535 566 537 572 537 c 0
 583 537 595 530 601 520 c 0
 604 515 605 509 605 504 c 2
 602 92 l 1
 569 92 l 1
 537 92 l 1
 539 440 l 1
 367 323 l 2
 363 320 357 318 352 317 c 0
 351 317 349 317 348 317 c 0
 331 317 316 332 315 349 c 2
 303 736 l 1
 336 737 l 1
EndSplineSet
Validated: 1
EndChar

StartChar: uni1E31
Encoding: 7729 7729 23
Width: 1024
VWidth: 0
Flags: HW
LayerCount: 2
Fore
SplineSet
781 707 m 1
 781 674 l 1
 481 674 l 1
 481 659 480 642 480 626 c 0
 480 565 483 494 483 423 c 0
 483 284 473 139 411 35 c 1
 382 52 l 1
 353 70 l 1
 407 160 415 301 415 442 c 0
 415 495 414 548 414 598 c 0
 414 637 415 675 417 709 c 0
 418 724 432 739 450 739 c 2
 781 739 l 1
 781 707 l 1
EndSplineSet
Validated: 1
EndChar

StartChar: uni1E3F
Encoding: 7743 7743 24
Width: 1024
VWidth: 0
Flags: HW
LayerCount: 2
Fore
SplineSet
62 74 m 1
 66 106 l 1
 67 106 68 106 69 106 c 0
 84 106 86 120 120 162 c 0
 259 338 232 740 515 740 c 0
 520 740 526 739 531 739 c 0
 825 724 749 325 865 137 c 0
 885 104 901 91 926 91 c 0
 929 91 931 91 934 91 c 1
 942 26 l 1
 937 25 932 25 927 25 c 0
 871 25 833 62 808 102 c 0
 651 357 755 663 527 674 c 0
 523 674 519 674 515 674 c 0
 295 674 357 357 171 121 c 0
 155 99 130 40 69 40 c 0
 66 40 62 41 59 41 c 1
 62 74 l 1
EndSplineSet
Validated: 1
EndChar

StartChar: eng
Encoding: 331 331 25
Width: 1024
VWidth: 0
Flags: HW
LayerCount: 2
Fore
SplineSet
118 92 m 1
 97 118 l 1
 460 413 l 1
 105 709 l 1
 127 734 l 1
 148 760 l 1
 512 455 l 1
 893 763 l 1
 913 737 l 1
 934 712 l 1
 564 412 l 1
 923 112 l 1
 901 86 l 1
 880 60 l 1
 512 369 l 1
 138 67 l 1
 118 92 l 1
EndSplineSet
Validated: 1
EndChar

StartChar: nacute
Encoding: 324 324 26
Width: 1024
VWidth: 0
Flags: HW
LayerCount: 2
Fore
SplineSet
787 774 m 1
 796 741 l 1
 724 723 658 681 613 622 c 0
 570 566 546 493 546 422 c 0
 546 419 546 416 546 413 c 0
 548 334 581 255 635 198 c 0
 689 141 764 102 843 94 c 1
 840 61 l 1
 837 29 l 1
 742 38 652 83 586 153 c 0
 559 182 537 214 520 249 c 1
 515 232 l 1
 70 383 l 2
 62 386 53 393 49 402 c 0
 48 406 47 411 47 415 c 0
 47 429 57 442 71 446 c 2
 495 572 l 1
 501 550 l 1
 514 590 534 628 560 662 c 0
 614 734 692 785 779 807 c 1
 787 774 l 1
497 309 m 1
 487 342 481 376 480 411 c 0
 480 415 479 418 479 422 c 0
 479 449 482 475 487 501 c 1
 189 413 l 1
 497 309 l 1
EndSplineSet
Validated: 1
EndChar

StartChar: uni01F5
Encoding: 501 501 27
Width: 1024
VWidth: 0
Flags: HW
LayerCount: 2
Fore
SplineSet
375 416 m 5
 449 319 524 274 611 274 c 4
 651 274 693 284 738 301 c 4
 771 313 792 357 792 407 c 4
 792 472 757 537 714 553 c 4
 670 570 628 580 589 580 c 4
 505 580 432 535 375 416 c 5
306 424 m 4
 306 521 221 606 124 606 c 5
 124 628 124 650 124 672 c 5
 190 672 253 645 299 599 c 4
 324 574 343 545 355 513 c 5
 421 606 505 645 593 645 c 4
 641 645 689 633 738 614 c 4
 787 595 821 552 839 505 c 4
 851 474 858 438 858 403 c 4
 858 333 832 267 763 240 c 4
 712 221 661 209 613 209 c 4
 519 209 432 249 355 334 c 5
 344 305 328 279 306 255 c 4
 264 209 203 180 141 176 c 5
 140 198 138 220 137 242 c 5
 222 248 293 316 304 399 c 4
 301 403 299 408 296 412 c 5
 305 419 l 6
 305 421 306 422 306 424 c 4
EndSplineSet
Validated: 1
EndChar

StartChar: uni1E8B
Encoding: 7819 7819 28
Width: 1024
VWidth: 0
Flags: HW
LayerCount: 2
Fore
SplineSet
201 221 m 1
 217 250 l 1
 443 119 l 1
 441 750 l 1
 474 750 l 1
 507 750 l 1
 510 119 l 1
 743 253 l 1
 760 224 l 1
 776 196 l 1
 494 33 l 2
 489 30 483 29 477 29 c 0
 472 29 466 30 461 33 c 2
 184 193 l 1
 201 221 l 1
EndSplineSet
Validated: 1
EndChar

StartChar: y
Encoding: 121 121 29
Width: 1024
VWidth: 0
Flags: HW
LayerCount: 2
Fore
SplineSet
487 787 m 1
 520 787 l 1
 521 756 l 1
 616 749 703 709 764 649 c 1
 888 738 l 1
 907 712 l 1
 927 685 l 1
 807 598 l 1
 841 548 860 488 860 425 c 0
 860 351 835 284 791 230 c 1
 945 116 l 1
 926 89 l 1
 906 62 l 1
 743 182 l 1
 684 132 607 100 522 94 c 1
 522 42 l 1
 489 42 l 1
 457 42 l 1
 456 94 l 1
 372 101 296 134 238 184 c 1
 97 83 l 1
 78 110 l 1
 58 136 l 1
 190 232 l 1
 147 286 123 352 123 425 c 0
 123 491 143 550 178 601 c 1
 71 681 l 1
 90 708 l 1
 110 734 l 1
 221 651 l 1
 280 708 364 748 455 756 c 1
 455 787 l 1
 487 787 l 1
456 161 m 1
 456 342 l 1
 293 224 l 1
 337 190 394 167 456 161 c 1
455 689 m 1
 385 682 322 653 276 611 c 1
 455 479 l 1
 455 689 l 1
522 161 m 1
 585 167 643 189 688 223 c 1
 522 346 l 1
 522 161 l 1
521 689 m 1
 521 473 l 1
 710 609 l 1
 662 653 596 683 521 689 c 1
232 561 m 1
 204 521 188 474 188 425 c 0
 188 369 210 315 245 271 c 1
 435 411 l 1
 232 561 l 1
737 270 m 1
 773 314 795 368 795 425 c 0
 795 473 780 518 753 558 c 1
 548 410 l 1
 737 270 l 1
EndSplineSet
Validated: 1
EndChar

StartChar: racute
Encoding: 341 341 30
Width: 1024
VWidth: 0
Flags: HW
LayerCount: 2
Fore
SplineSet
145 691 m 1
 167 717 l 1
 867 121 l 1
 846 95 l 1
 824 70 l 1
 124 666 l 1
 145 691 l 1
EndSplineSet
Validated: 1
EndChar

StartChar: equal
Encoding: 61 61 31
Width: 778
Flags: HW
LayerCount: 2
Fore
SplineSet
659 284 m 2
 679 284 697 266 697 246 c 0
 697 226 679 208 659 208 c 2
 119 204 l 2
 99 204 81 222 81 242 c 0
 81 262 99 280 119 280 c 2
 659 284 l 2
689 500 m 0
 689 480 682 462 662 462 c 0
 651 462 l 2
 138 470 l 2
 118 470 101 488 101 508 c 0
 101 528 109 546 129 546 c 0
 139 546 l 2
 652 538 l 2
 672 538 689 520 689 500 c 0
EndSplineSet
Validated: 1
EndChar

StartChar: question
Encoding: 63 63 32
Width: 778
Flags: HW
LayerCount: 2
Fore
SplineSet
507 631 m 0
 507 670 490 708 452 708 c 0
 441 708 426 703 412 696 c 0
 387 684 363 663 346 643 c 0
 318 609 291 575 265 539 c 0
 258 530 246 523 234 523 c 0
 213 523 196 540 196 561 c 0
 196 569 199 577 204 584 c 0
 231 621 258 657 287 692 c 0
 312 721 341 748 378 766 c 0
 401 777 425 784 452 784 c 0
 536 784 584 707 584 631 c 0
 584 548 560 459 498 397 c 0
 473 372 442 350 416 324 c 0
 408 316 400 308 396 302 c 0
 394 299 392 296 391 295 c 2
 391 293 l 2
 391 283 398 268 408 248 c 0
 412 241 416 231 416 221 c 0
 416 200 399 183 378 183 c 0
 368 183 357 188 350 195 c 0
 345 200 343 206 339 213 c 0
 330 231 314 258 314 292 c 0
 314 315 322 328 330 341 c 0
 352 373 393 407 420 431 c 0
 431 441 435 444 443 452 c 0
 486 495 506 560 507 631 c 0
374 82 m 0
 374 102 392 119 415 119 c 0
 438 119 456 102 456 82 c 0
 456 62 438 45 415 45 c 0
 392 45 374 62 374 82 c 0
EndSplineSet
Validated: 1
EndChar

StartChar: greater
Encoding: 62 62 33
Width: 774
Flags: HW
LayerCount: 2
Fore
SplineSet
126 586 m 4
 126 606 144 624 164 624 c 4
 168 624 173 624 177 622 c 6
 624 454 l 6
 637 449 648 434 648 418 c 4
 648 403 639 388 626 383 c 6
 163 182 l 6
 158 180 152 179 147 179 c 4
 127 179 110 197 110 217 c 4
 110 232 119 247 132 252 c 6
 508 416 l 5
 151 550 l 6
 138 555 126 570 126 586 c 4
EndSplineSet
Validated: 1
EndChar

StartChar: less
Encoding: 60 60 34
Width: 782
Flags: HW
LayerCount: 2
Fore
SplineSet
603 609 m 0
 623 609 641 591 641 571 c 0
 641 555 630 541 617 536 c 2
 287 401 l 1
 631 246 l 2
 643 240 653 227 653 211 c 0
 653 190 636 172 615 172 c 0
 610 172 604 174 599 176 c 2
 173 369 l 2
 160 375 151 386 151 403 c 0
 151 419 162 434 175 439 c 2
 589 607 l 2
 594 609 598 609 603 609 c 0
EndSplineSet
Validated: 1
EndChar

StartChar: colon
Encoding: 58 58 35
Width: 774
Flags: HW
LayerCount: 2
Fore
SplineSet
336 700 m 1
 459 700 l 1
 459 537 l 1
 336 537 l 1
 336 700 l 1
332 297 m 1
 465 299 l 1
 465 129 l 1
 332 127 l 1
 332 297 l 1
EndSplineSet
Validated: 1
EndChar

StartChar: dollar
Encoding: 36 36 36
Width: 778
Flags: HW
LayerCount: 2
Fore
SplineSet
264 529 m 4
 264 522 262 513 262 507 c 4
 262 482 274 467 287 454 c 4
 305 436 336 420 367 408 c 5
 370 635 l 5
 368 634 367 633 365 632 c 4
 332 621 298 606 280 588 c 4
 270 578 262 567 262 550 c 4
 262 544 264 535 264 529 c 4
365 327 m 5
 290 351 185 398 185 508 c 4
 185 515 186 522 187 529 c 4
 186 536 185 543 185 549 c 4
 185 641 274 681 337 703 c 4
 347 709 359 715 372 718 c 5
 372 735 l 6
 372 755 391 773 411 773 c 4
 431 773 449 754 449 734 c 4
 449 733 l 6
 449 707 l 5
 501 691 550 667 598 647 c 4
 611 642 621 626 621 611 c 4
 621 591 603 573 583 573 c 4
 578 573 572 575 567 577 c 4
 528 593 486 612 446 626 c 5
 442 385 l 5
 457 382 473 380 488 380 c 4
 536 380 574 356 600 330 c 4
 620 310 637 284 637 249 c 4
 637 201 608 166 584 142 c 4
 568 126 551 111 535 95 c 4
 507 67 471 57 437 54 c 5
 436 33 l 6
 436 13 418 -4 398 -4 c 4
 378 -4 359 14 359 34 c 4
 359 35 l 6
 360 57 l 5
 343 59 326 63 312 66 c 4
 265 75 210 88 166 132 c 4
 156 142 148 152 138 162 c 4
 126 174 110 191 106 216 c 6
 102 236 l 6
 102 238 101 241 101 243 c 4
 101 263 120 282 140 282 c 4
 170 282 177 256 182 229 c 5
 188 221 203 207 211 197 c 4
 242 158 298 144 361 135 c 5
 365 327 l 5
560 249 m 4
 560 250 560 250 560 251 c 4
 560 254 557 264 546 275 c 4
 534 287 511 303 488 303 c 4
 472 303 456 305 441 307 c 5
 438 132 l 5
 468 136 476 147 489 160 c 4
 511 182 560 221 560 249 c 4
EndSplineSet
Validated: 1
EndChar

StartChar: percent
Encoding: 37 37 37
Width: 770
Flags: HW
LayerCount: 2
Fore
SplineSet
679 714 m 4
 699 714 718 695 718 675 c 4
 718 665 714 654 706 647 c 6
 132 115 l 6
 125 108 114 104 105 104 c 4
 85 104 68 122 68 142 c 4
 68 152 72 164 80 171 c 6
 653 703 l 6
 660 710 670 714 679 714 c 4
93 613 m 4
 93 674 145 724 208 724 c 4
 271 724 323 674 323 613 c 4
 323 552 271 503 208 503 c 4
 145 503 93 552 93 613 c 4
450 187 m 4
 450 248 499 298 560 298 c 4
 621 298 671 248 671 187 c 4
 671 126 621 77 560 77 c 4
 499 77 450 126 450 187 c 4
EndSplineSet
Validated: 1
EndChar

StartChar: exclam
Encoding: 33 33 38
Width: 774
Flags: HW
LayerCount: 2
Fore
SplineSet
307 193 m 1
 430 193 l 1
 430 90 l 1
 307 90 l 1
 307 193 l 1
323 738 m 2
 323 757 340 775 360 775 c 0
 380 775 398 757 398 737 c 2
 409 334 l 2
 409 314 390 296 370 296 c 0
 350 296 332 314 332 334 c 2
 332 335 l 1
 323 737 l 1
 323 738 l 2
EndSplineSet
Validated: 1
EndChar

StartChar: parenleft
Encoding: 40 40 39
Width: 761
Flags: HW
LayerCount: 2
Fore
SplineSet
484 115 m 0
 484 94 467 77 446 77 c 0
 440 77 434 78 428 81 c 0
 324 136 221 233 202 355 c 0
 200 367 199 382 199 394 c 0
 199 465 229 534 288 593 c 0
 326 631 376 664 438 694 c 0
 443 696 449 698 455 698 c 0
 477 698 493 681 493 659 c 0
 493 642 484 632 471 626 c 0
 377 581 275 503 275 394 c 0
 275 385 277 377 278 368 c 0
 293 273 380 195 465 150 c 0
 476 143 484 131 484 115 c 0
EndSplineSet
Validated: 1
EndChar

StartChar: parenright
Encoding: 41 41 40
Width: 770
Flags: HW
LayerCount: 2
Fore
SplineSet
344 72 m 0
 324 72 306 90 306 110 c 0
 306 120 310 131 318 138 c 0
 337 155 357 173 373 189 c 0
 456 272 492 337 499 390 c 0
 500 397 500 404 500 411 c 0
 500 468 468 524 401 591 c 0
 381 611 358 631 332 653 c 0
 324 660 318 672 318 683 c 0
 318 704 335 722 356 722 c 0
 365 722 374 719 381 713 c 0
 408 690 433 668 456 645 c 0
 528 573 577 498 577 411 c 0
 577 401 575 390 574 380 c 0
 564 301 515 222 427 134 c 0
 410 117 390 99 370 81 c 0
 363 75 353 72 344 72 c 0
EndSplineSet
Validated: 1
EndChar

StartChar: asterisk
Encoding: 42 42 41
Width: 1024
Flags: HW
LayerCount: 2
Fore
SplineSet
770 189 m 4
 770 168 752 150 731 150 c 4
 722 150 713 154 706 161 c 6
 538 319 l 5
 541 111 l 6
 541 90 523 73 502 73 c 4
 482 73 464 90 464 110 c 6
 461 295 l 5
 334 163 l 6
 327 155 315 150 305 150 c 4
 284 150 267 168 267 189 c 4
 267 198 271 209 278 216 c 6
 412 354 l 5
 225 347 l 5
 223 347 l 6
 202 347 186 365 186 386 c 4
 186 406 203 424 222 424 c 6
 420 431 l 5
 247 595 l 6
 239 602 235 613 235 623 c 4
 235 643 253 661 273 661 c 4
 282 661 292 658 299 651 c 6
 459 501 l 5
 456 697 l 6
 456 717 474 735 494 735 c 4
 515 735 533 717 533 697 c 6
 536 483 l 5
 704 658 l 6
 711 666 721 670 731 670 c 4
 752 670 770 653 770 632 c 4
 770 623 767 612 760 605 c 6
 598 437 l 5
 788 444 l 5
 789 444 l 6
 810 444 828 427 828 406 c 4
 828 386 811 367 791 367 c 6
 606 361 l 5
 758 217 l 6
 766 210 770 199 770 189 c 4
EndSplineSet
Validated: 1
EndChar

StartChar: plus
Encoding: 43 43 42
Width: 770
Flags: HW
LayerCount: 2
Fore
SplineSet
127 355 m 2
 106 355 89 373 89 394 c 0
 89 415 107 432 128 432 c 2
 361 431 l 1
 359 665 l 2
 359 686 377 702 398 702 c 0
 418 702 436 685 436 665 c 2
 438 430 l 1
 677 428 l 2
 697 428 715 410 715 390 c 0
 715 369 698 351 677 351 c 2
 439 353 l 1
 440 132 l 2
 440 111 423 93 402 93 c 0
 381 93 364 110 364 131 c 2
 362 354 l 1
 127 355 l 2
EndSplineSet
Validated: 1
EndChar

StartChar: bar
Encoding: 124 124 43
Width: 520
Flags: HW
LayerCount: 2
Fore
SplineSet
216 706 m 2
 216 727 232 742 254 742 c 0
 276 742 292 727 292 705 c 2
 284 114 l 2
 284 93 268 77 246 77 c 0
 224 77 208 93 208 115 c 2
 216 706 l 2
EndSplineSet
Validated: 1
EndChar

StartChar: asciicircum
Encoding: 94 94 44
Width: 765
Flags: HW
LayerCount: 2
Fore
SplineSet
714 414 m 0
 714 392 698 376 676 376 c 0
 666 376 655 379 648 387 c 2
 393 653 l 1
 138 394 l 2
 131 387 121 384 111 384 c 0
 89 384 73 400 73 422 c 0
 73 432 76 442 83 449 c 2
 366 736 l 2
 373 743 383 746 393 746 c 0
 403 746 414 743 421 735 c 2
 703 440 l 2
 710 433 714 423 714 414 c 0
EndSplineSet
Validated: 1
EndChar

StartChar: bracketleft
Encoding: 91 91 45
Width: 770
Flags: HW
LayerCount: 2
Fore
SplineSet
495 719 m 6
 517 719 534 703 534 681 c 4
 534 660 517 643 496 643 c 6
 324 639 l 5
 309 115 l 5
 481 121 l 5
 482 121 l 6
 504 121 521 105 521 83 c 4
 521 62 504 45 484 45 c 6
 271 37 l 5
 269 37 l 6
 248 37 231 54 231 75 c 6
 231 76 l 5
 248 678 l 6
 248 698 266 715 286 715 c 6
 495 719 l 6
EndSplineSet
Validated: 1
EndChar

StartChar: bracketright
Encoding: 93 93 46
Width: 774
Flags: HW
LayerCount: 2
Fore
SplineSet
273 106 m 4
 273 128 289 145 311 145 c 6
 425 145 l 5
 428 581 l 5
 315 581 l 6
 294 581 278 597 278 618 c 4
 278 640 293 657 315 657 c 6
 467 657 l 6
 489 657 505 640 505 618 c 6
 501 106 l 6
 501 85 484 69 463 69 c 6
 311 69 l 6
 290 69 273 85 273 106 c 4
EndSplineSet
Validated: 1
EndChar

StartChar: braceleft
Encoding: 123 123 47
Width: 774
Flags: HW
LayerCount: 2
Fore
SplineSet
177 462 m 0
 188 462 201 457 214 457 c 0
 249 457 262 478 274 504 c 0
 288 533 299 574 313 606 c 0
 341 666 406 689 452 726 c 0
 459 731 467 734 475 734 c 0
 495 734 513 716 513 696 c 0
 513 685 508 674 499 667 c 0
 468 642 424 621 399 596 c 0
 392 589 387 581 384 574 c 0
 364 522 350 463 313 423 c 1
 348 389 355 345 355 288 c 0
 355 269 353 249 353 232 c 0
 353 199 369 185 387 169 c 1
 461 165 l 2
 480 164 497 147 497 127 c 0
 497 107 479 89 459 89 c 0
 458 89 458 89 457 89 c 2
 371 93 l 2
 363 93 355 96 349 101 c 0
 312 131 276 167 276 233 c 0
 276 250 279 269 279 287 c 0
 279 325 273 370 246 376 c 0
 234 376 217 379 202 381 c 0
 170 383 137 388 137 424 c 0
 137 448 155 462 177 462 c 0
EndSplineSet
Validated: 1
EndChar

StartChar: braceright
Encoding: 125 125 48
Width: 770
Flags: HW
LayerCount: 2
Fore
SplineSet
172 118 m 0
 172 138 190 156 210 156 c 0
 212 156 215 155 217 155 c 2
 255 147 l 1
 263 147 l 2
 278 147 299 156 325 167 c 0
 345 176 368 188 396 193 c 0
 405 195 408 201 412 214 c 0
 420 239 423 275 430 304 c 1
 433 342 451 379 484 394 c 1
 411 419 357 483 337 557 c 0
 325 595 280 623 238 629 c 0
 221 632 205 648 205 667 c 0
 205 687 223 705 243 705 c 0
 245 705 247 705 249 705 c 0
 319 695 393 648 411 579 c 0
 426 522 477 461 545 461 c 0
 565 461 587 469 610 469 c 0
 637 469 662 456 662 427 c 0
 662 396 634 384 616 374 c 0
 594 362 550 341 534 331 c 0
 529 328 519 327 515 323 c 0
 512 320 507 311 506 295 c 0
 505 281 501 269 498 250 c 0
 489 190 472 127 409 117 c 0
 363 109 323 71 263 71 c 2
 251 71 l 2
 249 71 246 72 244 72 c 2
 203 80 l 2
 187 83 172 100 172 118 c 0
EndSplineSet
Validated: 1
EndChar

StartChar: backslash
Encoding: 92 92 49
Width: 757
Flags: HW
LayerCount: 2
Fore
SplineSet
673 87 m 4
 673 66 656 49 635 49 c 4
 625 49 613 54 606 62 c 6
 111 624 l 6
 105 631 101 639 101 648 c 4
 101 670 117 687 139 687 c 4
 149 687 161 682 168 674 c 6
 664 113 l 6
 670 106 673 96 673 87 c 4
EndSplineSet
Validated: 1
EndChar

StartChar: period
Encoding: 46 46 50
Width: 770
Flags: HW
LayerCount: 2
Fore
SplineSet
283 168 m 1
 426 168 l 1
 426 12 l 1
 283 12 l 1
 283 168 l 1
EndSplineSet
Validated: 1
EndChar

StartChar: comma
Encoding: 44 44 51
Width: 761
Flags: HW
LayerCount: 2
Fore
SplineSet
286 43 m 0
 265 43 247 61 247 82 c 0
 247 92 251 103 259 110 c 2
 419 257 l 2
 426 264 436 267 445 267 c 0
 465 267 483 249 483 229 c 0
 483 219 479 208 471 201 c 2
 311 53 l 2
 304 46 295 43 286 43 c 0
EndSplineSet
Validated: 1
EndChar

StartChar: zero
Encoding: 48 48 52
Width: 778
Flags: HW
LayerCount: 2
Fore
SplineSet
366 751 m 4
 372 752 379 752 385 752 c 4
 422 752 441 733 461 722 c 4
 467 718 474 713 477 706 c 6
 518 624 l 6
 519 622 519 618 520 616 c 6
 545 530 l 6
 546 527 546 524 546 521 c 6
 554 296 l 5
 554 295 l 6
 554 292 554 288 553 285 c 6
 528 190 l 6
 527 186 525 183 523 179 c 6
 470 101 l 6
 459 85 438 77 423 72 c 4
 399 66 376 62 348 62 c 4
 322 62 300 65 280 70 c 4
 244 82 215 104 191 128 c 4
 139 180 114 249 114 325 c 4
 114 357 119 388 126 422 c 4
 151 548 231 643 301 732 c 4
 308 746 331 751 338 752 c 5
 345 752 l 6
 353 752 360 751 366 751 c 4
297 144 m 5
 298 144 l 5
 307 142 328 140 350 140 c 4
 370 140 396 141 409 147 c 5
 456 217 l 5
 477 299 l 5
 470 514 l 5
 447 592 l 5
 413 662 l 5
 407 666 391 674 390 675 c 4
 389 675 387 676 385 676 c 4
 384 676 382 675 380 675 c 4
 375 674 371 674 367 674 c 6
 359 674 l 5
 355 670 351 667 346 665 c 4
 280 581 218 500 202 407 c 4
 202 406 201 405 201 404 c 4
 194 375 189 349 189 324 c 4
 189 239 236 178 297 144 c 5
EndSplineSet
Validated: 1
EndChar

StartChar: one
Encoding: 49 49 53
Width: 774
Flags: HW
LayerCount: 2
Fore
SplineSet
578 105 m 0
 578 84 560 68 539 68 c 2
 376 70 l 2
 370 68 364 67 358 67 c 0
 348 67 342 69 334 71 c 2
 276 72 l 2
 273 72 271 72 268 73 c 2
 178 93 l 2
 162 98 148 111 148 130 c 0
 148 151 165 169 186 169 c 0
 198 169 212 165 223 165 c 0
 253 165 287 160 317 154 c 1
 329 240 347 328 349 416 c 2
 352 538 l 1
 323 494 283 462 247 427 c 0
 240 420 228 416 219 416 c 0
 199 416 181 434 181 454 c 0
 181 464 186 474 193 481 c 0
 227 515 281 557 299 600 c 0
 305 615 326 650 337 668 c 0
 346 677 351 693 375 693 c 0
 397 693 405 681 410 672 c 0
 417 661 429 606 429 597 c 0
 429 595 430 592 430 589 c 2
 426 413 l 1
 426 409 l 1
 406 228 l 1
 404 227 l 1
 394 146 l 1
 540 144 l 2
 560 144 578 126 578 105 c 0
EndSplineSet
Validated: 1
EndChar

StartChar: two
Encoding: 50 50 54
Width: 761
Flags: HW
LayerCount: 2
Fore
SplineSet
512 519 m 0
 512 582 455 626 392 626 c 0
 385 626 378 626 371 625 c 0
 369 625 368 624 366 624 c 0
 365 624 363 624 362 624 c 0
 332 624 300 622 290 606 c 1
 269 537 l 1
 281 446 l 1
 281 441 l 2
 281 420 264 402 243 402 c 0
 223 402 206 418 204 436 c 2
 191 535 l 1
 191 540 l 2
 191 544 193 547 194 551 c 2
 218 633 l 2
 224 645 230 656 239 665 c 0
 269 695 310 700 359 700 c 0
 360 700 361 700 362 700 c 0
 372 701 382 702 392 702 c 0
 498 702 588 625 588 518 c 0
 588 493 582 469 572 443 c 0
 572 442 571 441 571 440 c 0
 537 372 522 305 480 239 c 1
 457 191 413 159 365 139 c 1
 652 135 l 2
 672 135 690 117 690 97 c 0
 690 76 673 58 652 58 c 2
 336 62 l 2
 334 62 332 63 330 63 c 2
 166 92 l 2
 149 95 134 109 134 131 c 0
 134 158 156 172 181 172 c 0
 208 172 237 180 266 187 c 0
 313 198 365 219 394 248 c 0
 404 258 409 266 415 278 c 0
 452 334 470 408 502 473 c 0
 508 489 512 505 512 519 c 0
EndSplineSet
Validated: 1
EndChar

StartChar: three
Encoding: 51 51 55
Width: 778
Flags: HW
LayerCount: 2
Fore
SplineSet
183 168 m 4
 183 190 199 206 221 206 c 4
 231 206 242 203 249 196 c 4
 258 187 259 174 261 160 c 4
 263 157 266 155 268 153 c 4
 292 129 316 115 342 115 c 2
 356 116 l 6
 396 116 442 123 483 127 c 5
 486 132 492 138 493 141 c 4
 505 172 536 217 536 246 c 4
 536 250 536 254 536 258 c 4
 536 279 531 287 521 297 c 4
 512 306 496 316 473 326 c 4
 454 334 432 344 410 360 c 5
 315 372 l 6
 295 374 282 389 282 410 c 4
 282 431 295 445 314 447 c 6
 365 455 l 5
 395 470 l 6
 399 472 399 473 407 475 c 4
 452 488 513 532 513 585 c 4
 513 592 512 599 510 606 c 4
 502 617 493 629 483 639 c 4
 456 666 425 681 396 681 c 4
 391 681 386 680 381 679 c 5
 376 679 l 5
 325 675 279 642 225 599 c 4
 215 591 205 581 188 581 c 4
 166 581 151 596 151 618 c 4
 151 629 156 642 165 649 c 4
 221 693 282 748 368 755 c 4
 378 757 387 758 397 758 c 4
 477 758 543 698 578 643 c 4
 586 627 590 604 590 586 c 4
 590 503 525 445 465 416 c 5
 501 392 540 386 575 351 c 4
 595 331 611 301 611 261 c 4
 612 256 612 250 612 245 c 4
 612 203 593 170 580 145 c 4
 565 114 557 91 534 68 c 4
 527 61 519 52 502 52 c 4
 455 48 408 39 357 39 c 4
 348 39 338 39 329 40 c 4
 274 44 227 81 196 119 c 4
 187 130 186 146 183 162 c 4
 183 164 183 166 183 168 c 4
EndSplineSet
Validated: 1
EndChar

StartChar: four
Encoding: 52 52 56
Width: 765
Flags: HW
LayerCount: 2
Fore
SplineSet
689 324 m 4
 689 302 673 286 651 286 c 6
 646 286 l 5
 629 288 612 289 596 291 c 5
 595 233 591 174 587 116 c 4
 585 96 571 81 549 81 c 4
 527 81 511 97 511 119 c 4
 511 120 511 121 511 122 c 4
 516 180 518 240 519 298 c 5
 436 305 356 311 275 336 c 4
 269 338 259 339 244 339 c 6
 233 339 l 6
 211 339 196 355 196 377 c 4
 196 382 196 386 198 391 c 6
 283 596 l 5
 302 738 l 6
 304 757 319 771 340 771 c 4
 362 771 378 755 378 733 c 6
 378 728 l 5
 357 581 l 6
 357 578 356 574 355 571 c 6
 290 412 l 5
 359 389 439 381 518 375 c 5
 517 393 516 413 515 431 c 5
 515 438 l 5
 526 553 l 5
 511 717 l 5
 511 721 l 6
 511 743 527 759 549 759 c 4
 570 759 585 745 587 725 c 6
 603 557 l 5
 603 549 l 5
 592 434 l 5
 594 412 594 391 595 369 c 5
 615 367 636 363 656 361 c 4
 675 359 689 345 689 324 c 4
EndSplineSet
Validated: 1
EndChar

StartChar: five
Encoding: 53 53 57
Width: 790
Flags: HW
LayerCount: 2
Fore
SplineSet
205 601 m 4
 205 645 220 685 264 685 c 4
 282 685 296 678 308 671 c 4
 311 672 315 673 319 673 c 6
 500 693 l 5
 504 693 l 6
 526 693 542 677 542 655 c 4
 542 634 528 619 508 617 c 6
 330 597 l 5
 322 595 313 593 299 593 c 4
 293 593 287 593 282 596 c 5
 282 574 285 552 285 528 c 4
 285 503 275 475 275 449 c 4
 275 439 277 427 279 416 c 5
 318 434 344 456 397 456 c 4
 399 456 401 456 403 456 c 4
 427 452 444 441 455 434 c 4
 471 424 480 419 492 419 c 6
 501 419 l 5
 555 413 581 358 581 304 c 4
 581 280 576 258 566 239 c 4
 537 181 481 77 381 77 c 4
 348 77 323 90 306 99 c 4
 290 107 279 113 271 114 c 4
 251 117 237 130 237 152 c 4
 237 174 252 189 274 189 c 4
 275 189 277 189 278 189 c 4
 306 187 326 176 341 168 c 4
 358 159 372 153 382 153 c 4
 401 153 419 162 437 180 c 4
 463 206 484 245 499 275 c 4
 502 281 504 294 504 306 c 4
 504 321 499 339 493 342 c 4
 457 342 430 360 415 369 c 4
 405 375 397 378 393 379 c 4
 381 378 364 375 357 370 c 4
 344 361 332 355 321 350 c 4
 305 343 287 338 287 330 c 4
 282 314 270 302 250 302 c 4
 228 302 212 318 212 340 c 4
 212 373 199 408 199 447 c 4
 199 475 207 497 207 531 c 4
 207 554 205 578 205 601 c 4
EndSplineSet
Validated: 1
EndChar

StartChar: six
Encoding: 54 54 58
Width: 782
Flags: HW
LayerCount: 2
Fore
SplineSet
222 418 m 2
 222 409 l 2
 220 397 220 385 220 373 c 0
 220 299 250 230 300 180 c 2
 317 163 l 2
 335 145 371 103 393 103 c 2
 407 103 l 2
 421 103 435 109 452 119 c 0
 455 121 458 122 462 123 c 0
 510 134 519 187 527 240 c 0
 528 248 529 256 529 264 c 0
 529 302 518 341 482 341 c 0
 478 341 473 340 467 339 c 0
 419 329 357 322 305 319 c 1
 298 306 287 298 270 298 c 0
 248 298 232 314 232 336 c 2
 232 343 l 2
 235 359 237 374 247 384 c 0
 254 391 264 394 273 394 c 0
 323 395 400 405 451 415 c 0
 461 417 472 418 482 418 c 0
 549 418 585 370 599 318 c 0
 604 301 606 282 606 264 c 0
 606 252 605 239 603 227 c 0
 591 144 563 73 486 50 c 1
 464 38 439 27 407 27 c 0
 326 27 298 77 257 115 c 0
 253 118 250 122 246 126 c 0
 181 191 143 279 143 373 c 0
 143 386 143 400 145 414 c 0
 144 428 143 443 143 457 c 0
 143 556 174 638 228 692 c 0
 258 722 296 744 342 751 c 1
 350 751 l 1
 423 747 493 736 562 726 c 0
 581 724 595 709 595 688 c 0
 595 666 579 650 557 650 c 0
 551 650 546 651 540 652 c 0
 477 661 412 670 350 674 c 1
 322 669 301 656 283 638 c 0
 245 600 220 531 220 456 c 0
 220 443 221 430 222 418 c 2
EndSplineSet
Validated: 1
EndChar

StartChar: seven
Encoding: 55 55 59
Width: 778
Flags: HW
LayerCount: 2
Fore
SplineSet
130 650 m 6
 109 650 93 666 93 688 c 4
 93 710 109 726 131 726 c 6
 636 718 l 6
 657 718 673 702 673 680 c 4
 673 673 672 665 668 659 c 6
 492 384 l 5
 608 352 l 6
 624 347 636 335 636 315 c 4
 636 293 620 278 598 278 c 4
 595 278 591 278 588 279 c 6
 447 316 l 5
 311 102 l 6
 305 92 292 85 279 85 c 4
 257 85 241 101 241 123 c 4
 241 130 242 137 246 143 c 6
 371 338 l 5
 272 365 l 6
 256 370 245 381 245 401 c 4
 245 423 261 439 283 439 c 4
 286 439 290 439 293 438 c 6
 414 406 l 5
 565 643 l 5
 130 650 l 6
EndSplineSet
Validated: 1
EndChar

StartChar: eight
Encoding: 56 56 60
Width: 765
Flags: HW
LayerCount: 2
Fore
SplineSet
378 139 m 4
 408 139 424 143 435 148 c 4
 444 152 454 160 465 171 c 4
 472 178 490 197 495 206 c 5
 490 228 478 248 463 270 c 4
 444 297 419 324 391 352 c 4
 383 355 377 363 371 368 c 5
 355 354 338 339 324 325 c 4
 285 286 260 238 260 187 c 6
 260 186 l 6
 260 179 261 176 267 170 c 4
 274 163 291 153 309 148 c 4
 333 141 360 139 378 139 c 4
183 186 m 6
 183 187 l 6
 183 263 220 330 269 379 c 4
 283 393 297 405 312 418 c 5
 279 449 l 6
 278 449 277 450 276 451 c 4
 271 456 261 462 247 470 c 4
 233 478 214 488 198 504 c 4
 181 521 167 548 167 580 c 4
 167 595 171 612 171 625 c 4
 171 643 180 659 189 668 c 4
 209 688 238 697 268 705 c 4
 303 713 340 717 362 719 c 4
 375 720 382 722 394 722 c 4
 460 722 521 674 526 607 c 4
 526 606 526 605 526 604 c 4
 526 570 516 540 501 512 c 4
 483 478 457 449 430 422 c 5
 463 388 496 354 525 314 c 4
 545 286 562 256 570 220 c 4
 571 216 571 210 571 206 c 4
 571 176 553 153 541 140 c 4
 519 116 499 93 468 79 c 4
 442 67 414 62 378 62 c 4
 291 62 183 94 183 186 c 6
393 645 m 4
 385 645 381 643 372 642 c 4
 340 638 275 631 248 616 c 5
 247 605 244 588 244 580 c 4
 244 569 246 564 252 558 c 4
 272 538 306 530 330 506 c 6
 355 483 l 5
 357 483 l 6
 364 483 371 481 377 477 c 5
 401 501 420 525 433 549 c 4
 443 568 450 587 450 603 c 4
 447 628 418 645 393 645 c 4
EndSplineSet
Validated: 1
EndChar

StartChar: nine
Encoding: 57 57 61
Width: 786
Flags: HW
LayerCount: 2
Fore
SplineSet
365 638 m 2
 353 638 336 645 327 645 c 0
 316 645 309 641 302 634 c 0
 283 615 270 571 267 534 c 0
 265 509 259 487 259 463 c 0
 259 401 331 353 389 353 c 0
 403 353 477 386 497 386 c 0
 520 386 535 371 535 348 c 0
 535 338 531 328 524 321 c 0
 516 313 510 312 500 307 c 0
 491 302 414 278 389 278 c 0
 287 278 183 354 183 463 c 0
 183 494 189 514 191 540 c 0
 195 598 213 653 248 688 c 0
 266 706 292 722 327 722 c 0
 341 722 356 719 370 715 c 0
 377 716 384 716 391 716 c 0
 487 716 535 659 566 592 c 1
 589 558 613 524 615 468 c 2
 615 464 l 2
 614 456 614 446 614 437 c 0
 614 396 623 349 628 308 c 1
 628 303 l 2
 628 156 582 24 434 24 c 0
 392 24 359 24 324 36 c 0
 296 46 272 62 247 87 c 0
 198 136 145 190 106 255 c 0
 102 261 101 267 101 274 c 0
 101 297 116 312 139 312 c 0
 152 312 166 304 172 294 c 0
 205 240 253 191 302 142 c 0
 321 123 335 114 350 109 c 0
 368 102 393 99 434 99 c 0
 468 99 490 111 505 126 c 0
 540 161 552 230 552 301 c 1
 547 345 538 387 538 436 c 0
 538 446 538 458 539 468 c 0
 538 497 527 511 507 542 c 0
 504 547 500 552 498 557 c 0
 487 582 474 600 462 612 c 0
 445 629 424 639 391 639 c 0
 384 639 377 639 369 638 c 2
 365 638 l 2
EndSplineSet
Validated: 1
EndChar

StartChar: hyphen
Encoding: 45 45 62
Width: 330
Flags: HWO
LayerCount: 2
Fore
SplineSet
148 352 m 5
 84 354 l 6
 85 354 70 355 70 355 c 4
 70 356 50 360 50 389 c 4
 50 417 80 425 100 428 c 5
 147 429 l 5
 231 429 l 6
 251 429 269 411 269 391 c 4
 269 371 251 352 231 352 c 6
 148 352 l 5
114 429 m 1029
100 428 m 1029
EndSplineSet
EndChar
